<svg width="50" height="50" viewBox="0 0 50 50" fill="none" xmlns="http://www.w3.org/2000/svg">
<g clip-path="url(#clip0_16_36)">
<path d="M47.4984 0H22.2567C20.9662 0 19.9163 1.0499 19.9163 2.34033V15.0104C19.198 14.9205 18.4665 14.8737 17.7243 14.8737C8.04003 14.8737 0.161224 22.7525 0.161224 32.4368C0.161224 42.1211 8.04003 50 17.7243 50C27.4087 50 35.2875 42.1212 35.2875 32.4369C35.2974 24.0856 29.3854 16.9751 21.3812 15.2578V2.34033C21.3812 1.85762 21.774 1.46484 22.2568 1.46484H47.4985C47.9812 1.46484 48.374 1.85762 48.374 2.34033V27.582C48.374 28.0647 47.9813 28.4575 47.4985 28.4575H37.7036C37.299 28.4575 36.9712 28.7854 36.9712 29.1899C36.9712 29.5944 37.299 29.9224 37.7036 29.9224H47.4985C48.789 29.9224 49.8389 28.8725 49.8389 27.582V2.34033C49.8388 1.0499 48.7889 0 47.4984 0V0ZM17.7243 48.5352C8.84775 48.5352 1.62607 41.3135 1.62607 32.4369C1.62607 23.5604 8.84765 16.3387 17.7243 16.3387C18.4678 16.3387 19.1993 16.3905 19.9163 16.4886V27.582C19.9163 28.8725 20.9662 29.9224 22.2567 29.9224H33.6258C33.7549 30.7419 33.8227 31.5816 33.8227 32.4369C33.8227 41.3135 26.601 48.5352 17.7243 48.5352ZM33.3245 28.4575H22.2567C21.774 28.4575 21.3811 28.0647 21.3811 27.582V16.7579C27.2188 18.119 31.8462 22.6653 33.3245 28.4575Z" fill="#5C28CA"/>
<path d="M5.65529 12.1107H10.7901C11.6507 12.1107 12.3509 11.4105 12.3509 10.55V5.41521C12.3509 4.55457 11.6507 3.85437 10.7901 3.85437H5.65529C4.79474 3.85437 4.09454 4.55457 4.09454 5.41521V10.55C4.09454 11.4105 4.79474 12.1107 5.65529 12.1107ZM5.55939 5.41511C5.55939 5.36218 5.60236 5.31912 5.65529 5.31912H10.7901C10.843 5.31912 10.886 5.36218 10.886 5.41511V10.5499C10.886 10.6028 10.843 10.6458 10.7901 10.6458H5.65529C5.60236 10.6458 5.55939 10.6027 5.55939 10.5499V5.41511Z" fill="#F43FE2"/>
<path d="M41.4748 37.2844C39.0316 37.2844 37.0441 39.272 37.0441 41.715C37.0441 43.3983 37.9783 44.915 39.4823 45.6733C39.8434 45.8556 40.284 45.7102 40.4661 45.3491C40.6481 44.9879 40.503 44.5474 40.1419 44.3653C39.1348 43.8575 38.509 42.8419 38.509 41.7149C38.509 40.0796 39.8394 38.7491 41.4748 38.7491C43.1101 38.7491 44.4406 40.0796 44.4406 41.7149C44.4406 42.8502 43.7786 43.9009 42.754 44.3916C42.3892 44.5664 42.2351 45.0038 42.41 45.3685C42.5357 45.6313 42.7979 45.7848 43.071 45.7848C43.1771 45.7848 43.2849 45.7616 43.3869 45.7127C44.9169 44.9799 45.9055 43.4106 45.9055 41.7148C45.9055 39.272 43.918 37.2844 41.4748 37.2844Z" fill="#F43FE2"/>
</g>
<defs>
<clipPath id="clip0_16_36">
<rect width="50" height="50" fill="white"/>
</clipPath>
</defs>
</svg>
